<svg width="155" height="114" viewBox="0 0 155 114" fill="none" xmlns="http://www.w3.org/2000/svg">
<path d="M5 109H150M11 97H132M145 97H132M132 97V38M101.5 97V38M28 97C28 73.1193 28 61.8807 28 38M59.5 97C59.5 73.1193 59.5 61.8807 59.5 38" stroke="white" stroke-width="10" stroke-linecap="round"/>
<path fill-rule="evenodd" clip-rule="evenodd" d="M13.0014 35.3867H141.359C142.415 35.3867 142.75 33.9642 141.807 33.4923L79.0329 2.10557C78.7568 1.96753 78.4325 1.96472 78.154 2.09797L12.5697 33.4847C11.6094 33.9443 11.9368 35.3867 13.0014 35.3867ZM78.0953 32.8867C84.1705 32.8867 89.0953 27.9619 89.0953 21.8868C89.0953 15.8116 84.1705 10.8868 78.0953 10.8868C72.0202 10.8868 67.0953 15.8116 67.0953 21.8868C67.0953 27.9619 72.0202 32.8867 78.0953 32.8867Z" fill="white"/>
<path fill-rule="evenodd" clip-rule="evenodd" d="M78.5761 4.11322L17.4075 33.3868H72.0275C67.9047 31.2069 65.0953 26.8749 65.0953 21.8868C65.0953 14.7071 70.9156 8.88678 78.0953 8.88678C85.275 8.88678 91.0953 14.7071 91.0953 21.8868C91.0953 26.8749 88.2859 31.2069 84.1631 33.3868H137.123L78.5761 4.11322ZM77.2906 0.293926C78.126 -0.105837 79.0991 -0.0974118 79.9273 0.316717L142.701 31.7035C145.532 33.1193 144.525 37.3868 141.359 37.3868H13.0014C9.80752 37.3868 8.82534 33.0595 11.7063 31.6807L77.2906 0.293926ZM78.0953 12.8868C73.1248 12.8868 69.0953 16.9162 69.0953 21.8868C69.0953 26.8573 73.1248 30.8868 78.0953 30.8868C83.0659 30.8868 87.0953 26.8573 87.0953 21.8868C87.0953 16.9162 83.0659 12.8868 78.0953 12.8868Z" fill="white"/>
</svg>
