<svg width="155" height="146" viewBox="0 0 155 146" fill="none" xmlns="http://www.w3.org/2000/svg">
<path d="M66.9883 79.7812L74.6836 85.875L70.9922 89.0781L63.4141 82.9844L66.9883 79.7812ZM74.8789 69.1172V70.4648C74.8789 72.6263 74.5859 74.5664 74 76.2852C73.4271 78.0039 72.6003 79.4688 71.5195 80.6797C70.4388 81.8776 69.1628 82.7956 67.6914 83.4336C66.2201 84.0716 64.5859 84.3906 62.7891 84.3906C61.0052 84.3906 59.3711 84.0716 57.8867 83.4336C56.4023 82.7956 55.1198 81.8776 54.0391 80.6797C52.9583 79.4688 52.1185 78.0039 51.5195 76.2852C50.9336 74.5664 50.6406 72.6263 50.6406 70.4648V69.1172C50.6406 66.9427 50.9336 65.0026 51.5195 63.2969C52.1185 61.5781 52.9518 60.1133 54.0195 58.9023C55.0872 57.6914 56.3633 56.7669 57.8477 56.1289C59.332 55.4909 60.9661 55.1719 62.75 55.1719C64.5469 55.1719 66.181 55.4909 67.6523 56.1289C69.1367 56.7669 70.4193 57.6914 71.5 58.9023C72.5807 60.1133 73.4141 61.5781 74 63.2969C74.5859 65.0026 74.8789 66.9427 74.8789 69.1172ZM68.9609 70.4648V69.0781C68.9609 67.5677 68.8177 66.2396 68.5312 65.0938C68.2578 63.9479 67.8542 62.9844 67.3203 62.2031C66.7995 61.4219 66.1549 60.8359 65.3867 60.4453C64.6185 60.0417 63.7396 59.8398 62.75 59.8398C61.7604 59.8398 60.8815 60.0417 60.1133 60.4453C59.3451 60.8359 58.7005 61.4219 58.1797 62.2031C57.6589 62.9844 57.2617 63.9479 56.9883 65.0938C56.7148 66.2396 56.5781 67.5677 56.5781 69.0781V70.4648C56.5781 71.9622 56.7148 73.2904 56.9883 74.4492C57.2617 75.5951 57.6589 76.5651 58.1797 77.3594C58.7135 78.1406 59.3646 78.7331 60.1328 79.1367C60.9141 79.5404 61.7995 79.7422 62.7891 79.7422C63.7786 79.7422 64.651 79.5404 65.4062 79.1367C66.1745 78.7331 66.819 78.1406 67.3398 77.3594C67.8737 76.5651 68.2773 75.5951 68.5508 74.4492C68.8242 73.2904 68.9609 71.9622 68.9609 70.4648Z" fill="#8B8B8B"/>
<path d="M79.1172 55.5625H89.7227C91.8971 55.5625 93.7656 55.888 95.3281 56.5391C96.9036 57.1901 98.1146 58.1536 98.9609 59.4297C99.8073 60.7057 100.23 62.2747 100.23 64.1367C100.23 65.6602 99.9701 66.9688 99.4492 68.0625C98.9414 69.1432 98.2188 70.0482 97.2812 70.7773C96.3568 71.4935 95.2695 72.0664 94.0195 72.4961L92.1641 73.4727H82.9453L82.9062 68.9023H89.7617C90.7904 68.9023 91.6432 68.7201 92.3203 68.3555C92.9974 67.9909 93.5052 67.4831 93.8438 66.832C94.1953 66.181 94.3711 65.4258 94.3711 64.5664C94.3711 63.6549 94.2018 62.8672 93.8633 62.2031C93.5247 61.5391 93.0104 61.0312 92.3203 60.6797C91.6302 60.3281 90.7643 60.1523 89.7227 60.1523H84.9766V84H79.1172V55.5625ZM95.0156 84L88.5312 71.3242L94.7227 71.2852L101.285 83.7266V84H95.0156Z" fill="#8B8B8B"/>
<path d="M3.5 91V122.5C3.5 133.546 12.4543 142.5 23.5 142.5H52.5" stroke="#4D4D4D" stroke-width="6" stroke-linecap="round"/>
<path d="M54.5 3L23 3C11.9543 3 3 11.9543 3 23L3 52" stroke="#4D4D4D" stroke-width="6" stroke-linecap="round"/>
<path d="M151 54.5L151 23C151 11.9543 142.046 3 131 3L102 3" stroke="#4D4D4D" stroke-width="6" stroke-linecap="round"/>
<path d="M100 143L131.5 143C142.546 143 151.5 134.046 151.5 123L151.5 94" stroke="#4D4D4D" stroke-width="6" stroke-linecap="round"/>
</svg>
