<svg width="120" height="122" viewBox="0 0 120 122" fill="none" xmlns="http://www.w3.org/2000/svg">
<mask id="mask0_684_12" style="mask-type:alpha" maskUnits="userSpaceOnUse" x="7" y="8" width="106" height="106">
<rect x="7.39722" y="8.21924" width="105.205" height="105.205" fill="#D9D9D9"/>
</mask>
<g mask="url(#mask0_684_12)">
<path d="M108.493 113.014C108.493 106.699 107.25 100.447 104.833 94.6135C102.417 88.7799 98.8751 83.4793 94.4103 79.0145C89.9454 74.5496 84.6449 71.0079 78.8113 68.5916C72.9777 66.1752 66.7253 64.9315 60.411 64.9315C54.0968 64.9315 47.8444 66.1752 42.0108 68.5916C36.1772 71.0079 30.8766 74.5496 26.4118 79.0145C21.947 83.4793 18.4053 88.7799 15.9889 94.6135C13.5725 100.447 12.3289 106.699 12.3289 113.014L60.411 113.014H108.493Z" fill="white"/>
<circle cx="60.0001" cy="34.5206" r="24.6575" fill="white"/>
</g>
</svg>
