<svg width="306" height="318" viewBox="0 0 306 318" fill="none" xmlns="http://www.w3.org/2000/svg">
<path d="M156 18.3509L278.502 89.0774C280.358 90.1491 281.502 92.1299 281.502 94.2735V235.727C281.502 237.87 280.358 239.851 278.502 240.923L156 311.649C154.144 312.721 151.856 312.721 150 311.649L27.4981 240.923C25.6417 239.851 24.4981 237.87 24.4981 235.727V94.2735C24.4981 92.1299 25.6417 90.1491 27.4981 89.0773L150 18.3509C151.856 17.2791 154.144 17.2791 156 18.3509Z" fill="#FE9800" stroke="#FE9800" stroke-width="8"/>
<path d="M155.941 6.24228L278.443 75.1197C280.332 76.1823 281.502 78.1817 281.502 80.3497V217.65C281.502 219.818 280.332 221.818 278.443 222.88L155.941 291.758C154.115 292.784 151.885 292.784 150.059 291.758L27.5575 222.88C25.6677 221.818 24.4981 219.818 24.4981 217.65V80.3497C24.4981 78.1817 25.6677 76.1823 27.5575 75.1197L150.059 6.24228C151.885 5.21561 154.115 5.21561 155.941 6.24228Z" fill="white" stroke="#FE9800" stroke-width="8"/>
<path d="M89.7727 114.182L109.205 171.045H109.989L129.42 114.182H140.807L115.682 184H103.511L78.3864 114.182H89.7727ZM161.423 114.182V184H150.889V114.182H161.423ZM176.764 184V114.182H201.651C207.082 114.182 211.582 115.17 215.151 117.148C218.719 119.125 221.389 121.83 223.162 125.261C224.935 128.67 225.821 132.511 225.821 136.784C225.821 141.08 224.923 144.943 223.128 148.375C221.355 151.784 218.673 154.489 215.082 156.489C211.514 158.466 207.026 159.455 201.616 159.455H184.503V150.523H200.662C204.094 150.523 206.878 149.932 209.014 148.75C211.151 147.545 212.719 145.909 213.719 143.841C214.719 141.773 215.219 139.42 215.219 136.784C215.219 134.148 214.719 131.807 213.719 129.761C212.719 127.716 211.139 126.114 208.98 124.955C206.844 123.795 204.026 123.216 200.526 123.216H187.298V184H176.764Z" fill="#FE9800"/>
<rect x="177.053" y="27" width="85.234" height="6.10531" rx="3.05265" transform="rotate(30 177.053 27)" fill="#FFF0E2"/>
<rect x="131.867" y="32.2874" width="85.234" height="6.10531" rx="3.05265" transform="rotate(150 131.867 32.2874)" fill="#FFF0E2"/>
<path d="M247.1 95.0461L240.84 99.4691L240.123 107.1L235.7 100.84L228.069 100.123L234.329 95.7001L235.046 88.069L239.469 94.3289L247.1 95.0461Z" fill="#FE9800" fill-opacity="0.3"/>
<path d="M223.299 91.9633L218.655 91.8485L215.545 95.2993L215.66 90.6552L212.209 87.5451L216.853 87.6598L219.963 84.2091L219.849 88.8532L223.299 91.9633Z" fill="#FE9800" fill-opacity="0.3"/>
<path d="M79.7224 193.145L76.8045 196.956L77.7981 201.651L73.9871 198.733L69.2912 199.727L72.2092 195.916L71.2156 191.22L75.0266 194.138L79.7224 193.145Z" fill="#FE9800" fill-opacity="0.3"/>
</svg>
