<svg width="306" height="383" viewBox="0 0 306 383" fill="none" xmlns="http://www.w3.org/2000/svg">
<path d="M156 18.3509L278.502 89.0774C280.358 90.1491 281.502 92.1299 281.502 94.2735V235.727C281.502 237.87 280.358 239.851 278.502 240.923L156 311.649C154.144 312.721 151.856 312.721 150 311.649L27.4981 240.923C25.6417 239.851 24.4981 237.87 24.4981 235.727V94.2735C24.4981 92.1299 25.6417 90.1491 27.4981 89.0773L150 18.3509C151.856 17.2791 154.144 17.2791 156 18.3509Z" fill="#BA63E3" stroke="#BA63E3" stroke-width="8"/>
<path d="M155.941 6.24228L278.443 75.1197C280.332 76.1823 281.502 78.1817 281.502 80.3497V217.65C281.502 219.818 280.332 221.818 278.443 222.88L155.941 291.758C154.115 292.784 151.885 292.784 150.059 291.758L27.5575 222.88C25.6677 221.818 24.4981 219.818 24.4981 217.65V80.3497C24.4981 78.1817 25.6677 76.1823 27.5575 75.1197L150.059 6.24228C151.885 5.21561 154.115 5.21561 155.941 6.24228Z" fill="white" stroke="#BA63E3" stroke-width="8"/>
<path d="M80.5284 144V114.909H92.0057C94.2027 114.909 96.0777 115.302 97.6307 116.088C99.1932 116.865 100.382 117.968 101.196 119.398C102.02 120.818 102.432 122.49 102.432 124.412C102.432 126.344 102.015 128.006 101.182 129.398C100.348 130.78 99.1411 131.841 97.5597 132.58C95.9877 133.318 94.0843 133.688 91.8494 133.688H84.1648V128.744H90.8551C92.0294 128.744 93.0047 128.583 93.7812 128.261C94.5578 127.939 95.1354 127.456 95.5142 126.812C95.9025 126.169 96.0966 125.368 96.0966 124.412C96.0966 123.446 95.9025 122.632 95.5142 121.969C95.1354 121.306 94.553 120.804 93.767 120.463C92.9905 120.113 92.0104 119.938 90.8267 119.938H86.679V144H80.5284ZM96.2386 130.761L103.469 144H96.679L89.6051 130.761H96.2386ZM116.256 144.426C114.012 144.426 112.08 143.972 110.461 143.062C108.851 142.144 107.611 140.847 106.739 139.17C105.868 137.485 105.433 135.491 105.433 133.19C105.433 130.946 105.868 128.976 106.739 127.281C107.611 125.586 108.837 124.265 110.418 123.318C112.009 122.371 113.875 121.898 116.015 121.898C117.454 121.898 118.794 122.13 120.035 122.594C121.285 123.048 122.374 123.735 123.302 124.653C124.239 125.572 124.969 126.727 125.489 128.119C126.01 129.502 126.271 131.121 126.271 132.977V134.639H107.847V130.889H120.575C120.575 130.018 120.385 129.246 120.006 128.574C119.628 127.902 119.102 127.376 118.43 126.997C117.767 126.609 116.995 126.415 116.114 126.415C115.196 126.415 114.381 126.628 113.671 127.054C112.97 127.471 112.421 128.034 112.023 128.744C111.626 129.445 111.422 130.226 111.413 131.088V134.653C111.413 135.733 111.612 136.666 112.009 137.452C112.416 138.238 112.989 138.844 113.728 139.27C114.467 139.696 115.343 139.909 116.356 139.909C117.028 139.909 117.644 139.814 118.202 139.625C118.761 139.436 119.239 139.152 119.637 138.773C120.035 138.394 120.338 137.93 120.546 137.381L126.143 137.75C125.859 139.095 125.276 140.269 124.396 141.273C123.524 142.267 122.397 143.044 121.015 143.602C119.642 144.152 118.056 144.426 116.256 144.426ZM140.049 152.636C138.089 152.636 136.408 152.366 135.006 151.827C133.614 151.296 132.506 150.572 131.683 149.653C130.859 148.735 130.324 147.703 130.077 146.557L135.674 145.804C135.844 146.24 136.114 146.647 136.484 147.026C136.853 147.404 137.341 147.707 137.947 147.935C138.562 148.171 139.31 148.29 140.191 148.29C141.507 148.29 142.592 147.968 143.444 147.324C144.306 146.689 144.737 145.624 144.737 144.128V140.136H144.481C144.216 140.742 143.818 141.315 143.288 141.855C142.757 142.395 142.076 142.835 141.242 143.176C140.409 143.517 139.415 143.688 138.259 143.688C136.621 143.688 135.129 143.309 133.785 142.551C132.45 141.784 131.384 140.615 130.589 139.043C129.803 137.461 129.41 135.463 129.41 133.048C129.41 130.577 129.812 128.512 130.617 126.855C131.422 125.198 132.492 123.957 133.827 123.134C135.172 122.31 136.645 121.898 138.245 121.898C139.467 121.898 140.489 122.106 141.313 122.523C142.137 122.93 142.8 123.441 143.302 124.057C143.813 124.663 144.206 125.259 144.481 125.847H144.708V122.182H150.717V144.213C150.717 146.069 150.262 147.622 149.353 148.872C148.444 150.122 147.184 151.06 145.575 151.685C143.974 152.319 142.132 152.636 140.049 152.636ZM140.177 139.142C141.152 139.142 141.976 138.901 142.648 138.418C143.33 137.925 143.851 137.224 144.211 136.315C144.58 135.397 144.765 134.298 144.765 133.02C144.765 131.741 144.585 130.634 144.225 129.696C143.865 128.749 143.344 128.015 142.663 127.494C141.981 126.973 141.152 126.713 140.177 126.713C139.183 126.713 138.344 126.983 137.663 127.523C136.981 128.053 136.465 128.792 136.114 129.739C135.764 130.686 135.589 131.779 135.589 133.02C135.589 134.279 135.764 135.368 136.114 136.287C136.474 137.196 136.99 137.902 137.663 138.403C138.344 138.896 139.183 139.142 140.177 139.142ZM169.523 134.71V122.182H175.575V144H169.765V140.037H169.538C169.045 141.315 168.226 142.343 167.08 143.119C165.944 143.896 164.557 144.284 162.918 144.284C161.46 144.284 160.177 143.953 159.069 143.29C157.961 142.627 157.094 141.685 156.469 140.463C155.854 139.241 155.541 137.778 155.532 136.074V122.182H161.583V134.994C161.593 136.282 161.938 137.3 162.62 138.048C163.302 138.796 164.216 139.17 165.362 139.17C166.091 139.17 166.772 139.005 167.407 138.673C168.041 138.332 168.553 137.83 168.941 137.168C169.339 136.505 169.533 135.686 169.523 134.71ZM186.466 114.909V144H180.415V114.909H186.466ZM197.535 144.412C196.143 144.412 194.902 144.17 193.813 143.688C192.724 143.195 191.862 142.471 191.228 141.514C190.603 140.548 190.29 139.346 190.29 137.906C190.29 136.694 190.513 135.676 190.958 134.852C191.403 134.028 192.009 133.366 192.776 132.864C193.543 132.362 194.415 131.983 195.39 131.727C196.375 131.472 197.407 131.292 198.487 131.188C199.755 131.055 200.778 130.932 201.555 130.818C202.331 130.695 202.895 130.515 203.245 130.278C203.595 130.042 203.771 129.691 203.771 129.227V129.142C203.771 128.242 203.487 127.546 202.918 127.054C202.36 126.562 201.564 126.315 200.532 126.315C199.443 126.315 198.576 126.557 197.933 127.04C197.289 127.513 196.862 128.11 196.654 128.83L191.058 128.375C191.342 127.049 191.9 125.903 192.734 124.938C193.567 123.962 194.642 123.214 195.958 122.693C197.284 122.163 198.818 121.898 200.56 121.898C201.772 121.898 202.933 122.04 204.04 122.324C205.158 122.608 206.147 123.048 207.009 123.645C207.88 124.241 208.567 125.009 209.069 125.946C209.571 126.874 209.822 127.987 209.822 129.284V144H204.083V140.974H203.913C203.562 141.656 203.094 142.258 202.506 142.778C201.919 143.29 201.214 143.692 200.39 143.986C199.566 144.27 198.614 144.412 197.535 144.412ZM199.268 140.236C200.158 140.236 200.944 140.061 201.626 139.71C202.308 139.35 202.843 138.867 203.231 138.261C203.619 137.655 203.813 136.969 203.813 136.202V133.886C203.624 134.009 203.363 134.123 203.032 134.227C202.71 134.322 202.345 134.412 201.938 134.497C201.531 134.573 201.124 134.644 200.717 134.71C200.309 134.767 199.94 134.819 199.609 134.866C198.898 134.971 198.278 135.136 197.748 135.364C197.218 135.591 196.806 135.899 196.512 136.287C196.219 136.666 196.072 137.139 196.072 137.707C196.072 138.531 196.37 139.161 196.967 139.597C197.573 140.023 198.34 140.236 199.268 140.236ZM214.516 144V122.182H220.383V125.989H220.61C221.008 124.634 221.675 123.612 222.613 122.92C223.55 122.22 224.63 121.869 225.852 121.869C226.155 121.869 226.481 121.888 226.832 121.926C227.182 121.964 227.49 122.016 227.755 122.082V127.452C227.471 127.366 227.078 127.291 226.576 127.224C226.074 127.158 225.615 127.125 225.198 127.125C224.308 127.125 223.513 127.319 222.812 127.707C222.121 128.086 221.571 128.616 221.164 129.298C220.766 129.98 220.567 130.766 220.567 131.656V144H214.516Z" fill="#BA63E3"/>
<path d="M101.557 184V160.727H105.068V180.977H115.614V184H101.557ZM126.869 184.352C125.15 184.352 123.669 183.985 122.426 183.25C121.191 182.508 120.237 181.466 119.562 180.125C118.896 178.777 118.562 177.197 118.562 175.386C118.562 173.598 118.896 172.023 119.562 170.659C120.237 169.295 121.176 168.231 122.381 167.466C123.593 166.701 125.009 166.318 126.631 166.318C127.616 166.318 128.57 166.481 129.494 166.807C130.419 167.133 131.248 167.644 131.983 168.341C132.718 169.038 133.297 169.943 133.722 171.057C134.146 172.163 134.358 173.508 134.358 175.091V176.295H120.483V173.75H131.028C131.028 172.856 130.847 172.064 130.483 171.375C130.119 170.678 129.608 170.129 128.949 169.727C128.297 169.326 127.532 169.125 126.653 169.125C125.699 169.125 124.866 169.36 124.153 169.83C123.449 170.292 122.903 170.898 122.517 171.648C122.138 172.39 121.949 173.197 121.949 174.068V176.057C121.949 177.223 122.153 178.216 122.562 179.034C122.979 179.852 123.559 180.477 124.301 180.909C125.044 181.333 125.911 181.545 126.903 181.545C127.547 181.545 128.134 181.455 128.665 181.273C129.195 181.083 129.653 180.803 130.04 180.432C130.426 180.061 130.722 179.602 130.926 179.057L134.142 179.636C133.884 180.583 133.422 181.413 132.756 182.125C132.097 182.83 131.267 183.379 130.267 183.773C129.275 184.159 128.142 184.352 126.869 184.352ZM152.56 166.545L146.23 184H142.594L136.253 166.545H139.901L144.321 179.977H144.503L148.912 166.545H152.56ZM162.682 184.352C160.962 184.352 159.481 183.985 158.239 183.25C157.004 182.508 156.049 181.466 155.375 180.125C154.708 178.777 154.375 177.197 154.375 175.386C154.375 173.598 154.708 172.023 155.375 170.659C156.049 169.295 156.989 168.231 158.193 167.466C159.405 166.701 160.822 166.318 162.443 166.318C163.428 166.318 164.383 166.481 165.307 166.807C166.231 167.133 167.061 167.644 167.795 168.341C168.53 169.038 169.11 169.943 169.534 171.057C169.958 172.163 170.17 173.508 170.17 175.091V176.295H156.295V173.75H166.841C166.841 172.856 166.659 172.064 166.295 171.375C165.932 170.678 165.42 170.129 164.761 169.727C164.11 169.326 163.345 169.125 162.466 169.125C161.511 169.125 160.678 169.36 159.966 169.83C159.261 170.292 158.716 170.898 158.33 171.648C157.951 172.39 157.761 173.197 157.761 174.068V176.057C157.761 177.223 157.966 178.216 158.375 179.034C158.792 179.852 159.371 180.477 160.114 180.909C160.856 181.333 161.723 181.545 162.716 181.545C163.36 181.545 163.947 181.455 164.477 181.273C165.008 181.083 165.466 180.803 165.852 180.432C166.239 180.061 166.534 179.602 166.739 179.057L169.955 179.636C169.697 180.583 169.235 181.413 168.568 182.125C167.909 182.83 167.08 183.379 166.08 183.773C165.087 184.159 163.955 184.352 162.682 184.352ZM177.338 160.727V184H173.94V160.727H177.338ZM198.435 184.318C196.874 184.318 195.48 184.049 194.253 183.511C193.033 182.973 192.067 182.227 191.355 181.273C190.651 180.311 190.272 179.197 190.219 177.932H193.787C193.832 178.621 194.063 179.22 194.48 179.727C194.904 180.227 195.457 180.614 196.139 180.886C196.821 181.159 197.579 181.295 198.412 181.295C199.329 181.295 200.139 181.136 200.844 180.818C201.556 180.5 202.113 180.057 202.514 179.489C202.916 178.913 203.116 178.25 203.116 177.5C203.116 176.72 202.916 176.034 202.514 175.443C202.12 174.845 201.541 174.375 200.776 174.034C200.018 173.693 199.101 173.523 198.026 173.523H196.06V170.659H198.026C198.889 170.659 199.647 170.504 200.298 170.193C200.957 169.883 201.473 169.451 201.844 168.898C202.215 168.337 202.401 167.682 202.401 166.932C202.401 166.212 202.238 165.587 201.912 165.057C201.594 164.519 201.139 164.098 200.548 163.795C199.965 163.492 199.276 163.341 198.48 163.341C197.723 163.341 197.014 163.481 196.355 163.761C195.704 164.034 195.173 164.428 194.764 164.943C194.355 165.451 194.135 166.061 194.105 166.773H190.707C190.745 165.515 191.116 164.409 191.821 163.455C192.533 162.5 193.473 161.754 194.639 161.216C195.806 160.678 197.101 160.409 198.526 160.409C200.018 160.409 201.306 160.701 202.389 161.284C203.48 161.86 204.321 162.629 204.912 163.591C205.51 164.553 205.806 165.606 205.798 166.75C205.806 168.053 205.442 169.159 204.707 170.068C203.98 170.977 203.01 171.587 201.798 171.898V172.08C203.344 172.314 204.541 172.928 205.389 173.92C206.245 174.913 206.67 176.144 206.662 177.614C206.67 178.894 206.313 180.042 205.594 181.057C204.882 182.072 203.908 182.871 202.673 183.455C201.438 184.03 200.026 184.318 198.435 184.318Z" fill="#B8B8B8"/>
<path d="M153 335L158.388 351.584H175.825L161.719 361.833L167.107 378.416L153 368.167L138.893 378.416L144.281 361.833L130.175 351.584H147.612L153 335Z" fill="#F1B720"/>
</svg>
