<svg width="306" height="318" viewBox="0 0 306 318" fill="none" xmlns="http://www.w3.org/2000/svg">
<path d="M156 18.3509L278.502 89.0774C280.358 90.1491 281.502 92.1299 281.502 94.2735V235.727C281.502 237.87 280.358 239.851 278.502 240.923L156 311.649C154.144 312.721 151.856 312.721 150 311.649L27.4981 240.923C25.6417 239.851 24.4981 237.87 24.4981 235.727V94.2735C24.4981 92.1299 25.6417 90.1491 27.4981 89.0773L150 18.3509C151.856 17.2791 154.144 17.2791 156 18.3509Z" fill="#77A9F4" stroke="#77A9F4" stroke-width="8"/>
<path d="M155.956 6.26926L278.457 75.609C280.339 76.6739 281.502 78.6686 281.502 80.8305V219.169C281.502 221.331 280.339 223.326 278.457 224.391L155.956 293.731C154.122 294.769 151.878 294.769 150.044 293.731L27.5426 224.391C25.6611 223.326 24.4981 221.331 24.4981 219.169V80.8305C24.4981 78.6686 25.6611 76.6739 27.5426 75.609L150.044 6.26926C151.878 5.23134 154.122 5.23134 155.956 6.26926Z" fill="white" stroke="#77A9F4" stroke-width="8"/>
<path d="M84.196 125.094H77.9744C77.8608 124.289 77.6288 123.574 77.2784 122.949C76.928 122.314 76.4782 121.775 75.929 121.33C75.3797 120.884 74.7453 120.544 74.0256 120.307C73.3153 120.07 72.5436 119.952 71.7102 119.952C70.2045 119.952 68.893 120.326 67.7756 121.074C66.6581 121.812 65.7917 122.892 65.1761 124.312C64.5606 125.723 64.2528 127.437 64.2528 129.455C64.2528 131.528 64.5606 133.271 65.1761 134.682C65.8011 136.093 66.6723 137.158 67.7898 137.878C68.9072 138.598 70.1998 138.957 71.6676 138.957C72.4915 138.957 73.2538 138.848 73.9545 138.631C74.6648 138.413 75.2945 138.096 75.8438 137.679C76.393 137.253 76.8475 136.737 77.2074 136.131C77.5767 135.525 77.8324 134.833 77.9744 134.057L84.196 134.085C84.035 135.42 83.6326 136.708 82.9886 137.949C82.3542 139.18 81.4972 140.283 80.4176 141.259C79.3475 142.224 78.0691 142.991 76.5824 143.56C75.1051 144.118 73.4337 144.398 71.5682 144.398C68.9735 144.398 66.6534 143.811 64.608 142.636C62.572 141.462 60.9621 139.762 59.7784 137.537C58.6042 135.312 58.017 132.617 58.017 129.455C58.017 126.282 58.6136 123.583 59.8068 121.358C61 119.133 62.6193 117.437 64.6648 116.273C66.7102 115.098 69.0114 114.511 71.5682 114.511C73.2538 114.511 74.8163 114.748 76.2557 115.222C77.7045 115.695 78.9877 116.386 80.1051 117.295C81.2225 118.195 82.1316 119.298 82.8324 120.605C83.5426 121.912 83.9972 123.408 84.196 125.094ZM102.484 134.71V122.182H108.536V144H102.726V140.037H102.499C102.006 141.315 101.187 142.343 100.041 143.119C98.9048 143.896 97.5175 144.284 95.8793 144.284C94.4209 144.284 93.1378 143.953 92.0298 143.29C90.9219 142.627 90.0554 141.685 89.4304 140.463C88.8149 139.241 88.5024 137.778 88.4929 136.074V122.182H94.544V134.994C94.5535 136.282 94.8991 137.3 95.581 138.048C96.2628 138.796 97.1766 139.17 98.3224 139.17C99.0516 139.17 99.7334 139.005 100.368 138.673C101.002 138.332 101.514 137.83 101.902 137.168C102.3 136.505 102.494 135.686 102.484 134.71ZM131.529 128.403L125.989 128.744C125.895 128.271 125.691 127.845 125.379 127.466C125.066 127.078 124.654 126.77 124.143 126.543C123.641 126.306 123.04 126.188 122.339 126.188C121.401 126.188 120.611 126.386 119.967 126.784C119.323 127.172 119.001 127.693 119.001 128.347C119.001 128.867 119.209 129.308 119.626 129.668C120.042 130.027 120.757 130.316 121.771 130.534L125.719 131.33C127.841 131.765 129.422 132.466 130.464 133.432C131.505 134.398 132.026 135.667 132.026 137.239C132.026 138.669 131.605 139.923 130.762 141.003C129.929 142.082 128.783 142.925 127.325 143.531C125.876 144.128 124.204 144.426 122.31 144.426C119.422 144.426 117.121 143.825 115.407 142.622C113.702 141.41 112.703 139.762 112.41 137.679L118.362 137.366C118.541 138.247 118.977 138.92 119.668 139.384C120.36 139.838 121.245 140.065 122.325 140.065C123.385 140.065 124.237 139.862 124.881 139.455C125.535 139.038 125.866 138.503 125.876 137.849C125.866 137.3 125.634 136.85 125.18 136.5C124.725 136.14 124.024 135.866 123.077 135.676L119.299 134.923C117.168 134.497 115.582 133.759 114.54 132.707C113.508 131.656 112.992 130.316 112.992 128.688C112.992 127.286 113.371 126.079 114.129 125.065C114.896 124.052 115.97 123.271 117.353 122.722C118.745 122.172 120.374 121.898 122.239 121.898C124.995 121.898 127.164 122.48 128.745 123.645C130.336 124.81 131.264 126.396 131.529 128.403ZM147.442 122.182V126.727H134.303V122.182H147.442ZM137.286 116.955H143.337V137.295C143.337 137.854 143.422 138.29 143.592 138.602C143.763 138.905 144 139.118 144.303 139.241C144.615 139.365 144.975 139.426 145.382 139.426C145.666 139.426 145.95 139.402 146.234 139.355C146.518 139.298 146.736 139.256 146.888 139.227L147.839 143.73C147.536 143.825 147.11 143.934 146.561 144.057C146.012 144.189 145.344 144.27 144.558 144.298C143.1 144.355 141.821 144.161 140.723 143.716C139.634 143.271 138.786 142.58 138.18 141.642C137.574 140.705 137.276 139.521 137.286 138.091V116.955ZM161.007 144.426C158.801 144.426 156.893 143.957 155.283 143.02C153.682 142.073 152.446 140.757 151.575 139.071C150.704 137.376 150.268 135.411 150.268 133.176C150.268 130.922 150.704 128.953 151.575 127.267C152.446 125.572 153.682 124.256 155.283 123.318C156.893 122.371 158.801 121.898 161.007 121.898C163.214 121.898 165.117 122.371 166.717 123.318C168.327 124.256 169.568 125.572 170.439 127.267C171.31 128.953 171.746 130.922 171.746 133.176C171.746 135.411 171.31 137.376 170.439 139.071C169.568 140.757 168.327 142.073 166.717 143.02C165.117 143.957 163.214 144.426 161.007 144.426ZM161.036 139.739C162.039 139.739 162.877 139.455 163.55 138.886C164.222 138.309 164.729 137.523 165.07 136.528C165.42 135.534 165.595 134.402 165.595 133.134C165.595 131.865 165.42 130.733 165.07 129.739C164.729 128.744 164.222 127.958 163.55 127.381C162.877 126.803 162.039 126.514 161.036 126.514C160.022 126.514 159.17 126.803 158.479 127.381C157.797 127.958 157.281 128.744 156.93 129.739C156.589 130.733 156.419 131.865 156.419 133.134C156.419 134.402 156.589 135.534 156.93 136.528C157.281 137.523 157.797 138.309 158.479 138.886C159.17 139.455 160.022 139.739 161.036 139.739ZM175.68 144V122.182H181.447V126.031H181.703C182.158 124.753 182.915 123.744 183.976 123.006C185.036 122.267 186.305 121.898 187.783 121.898C189.279 121.898 190.553 122.272 191.604 123.02C192.655 123.759 193.356 124.762 193.706 126.031H193.933C194.378 124.781 195.183 123.782 196.348 123.034C197.522 122.277 198.91 121.898 200.51 121.898C202.546 121.898 204.198 122.546 205.467 123.844C206.746 125.132 207.385 126.959 207.385 129.327V144H201.348V130.52C201.348 129.308 201.026 128.399 200.382 127.793C199.738 127.187 198.933 126.884 197.967 126.884C196.869 126.884 196.012 127.234 195.396 127.935C194.781 128.626 194.473 129.54 194.473 130.676V144H188.607V130.392C188.607 129.322 188.299 128.47 187.683 127.835C187.077 127.201 186.277 126.884 185.283 126.884C184.61 126.884 184.004 127.054 183.464 127.395C182.934 127.726 182.513 128.195 182.2 128.801C181.888 129.398 181.732 130.098 181.732 130.903V144H175.68ZM222.108 144.426C219.864 144.426 217.932 143.972 216.312 143.062C214.703 142.144 213.462 140.847 212.591 139.17C211.72 137.485 211.284 135.491 211.284 133.19C211.284 130.946 211.72 128.976 212.591 127.281C213.462 125.586 214.688 124.265 216.27 123.318C217.861 122.371 219.726 121.898 221.866 121.898C223.306 121.898 224.646 122.13 225.886 122.594C227.136 123.048 228.225 123.735 229.153 124.653C230.091 125.572 230.82 126.727 231.341 128.119C231.862 129.502 232.122 131.121 232.122 132.977V134.639H213.699V130.889H226.426C226.426 130.018 226.237 129.246 225.858 128.574C225.479 127.902 224.954 127.376 224.281 126.997C223.618 126.609 222.847 126.415 221.966 126.415C221.047 126.415 220.233 126.628 219.523 127.054C218.822 127.471 218.273 128.034 217.875 128.744C217.477 129.445 217.274 130.226 217.264 131.088V134.653C217.264 135.733 217.463 136.666 217.861 137.452C218.268 138.238 218.841 138.844 219.58 139.27C220.318 139.696 221.194 139.909 222.207 139.909C222.88 139.909 223.495 139.814 224.054 139.625C224.613 139.436 225.091 139.152 225.489 138.773C225.886 138.394 226.189 137.93 226.398 137.381L231.994 137.75C231.71 139.095 231.128 140.269 230.247 141.273C229.376 142.267 228.249 143.044 226.866 143.602C225.493 144.152 223.907 144.426 222.108 144.426ZM236.071 144V122.182H241.938V125.989H242.165C242.563 124.634 243.23 123.612 244.168 122.92C245.105 122.22 246.185 121.869 247.406 121.869C247.709 121.869 248.036 121.888 248.386 121.926C248.737 121.964 249.045 122.016 249.31 122.082V127.452C249.026 127.366 248.633 127.291 248.131 127.224C247.629 127.158 247.17 127.125 246.753 127.125C245.863 127.125 245.067 127.319 244.366 127.707C243.675 128.086 243.126 128.616 242.719 129.298C242.321 129.98 242.122 130.766 242.122 131.656V144H236.071Z" fill="#77A9F4"/>
<path d="M103.557 184V160.727H107.068V180.977H117.614V184H103.557ZM128.869 184.352C127.15 184.352 125.669 183.985 124.426 183.25C123.191 182.508 122.237 181.466 121.562 180.125C120.896 178.777 120.562 177.197 120.562 175.386C120.562 173.598 120.896 172.023 121.562 170.659C122.237 169.295 123.176 168.231 124.381 167.466C125.593 166.701 127.009 166.318 128.631 166.318C129.616 166.318 130.57 166.481 131.494 166.807C132.419 167.133 133.248 167.644 133.983 168.341C134.718 169.038 135.297 169.943 135.722 171.057C136.146 172.163 136.358 173.508 136.358 175.091V176.295H122.483V173.75H133.028C133.028 172.856 132.847 172.064 132.483 171.375C132.119 170.678 131.608 170.129 130.949 169.727C130.297 169.326 129.532 169.125 128.653 169.125C127.699 169.125 126.866 169.36 126.153 169.83C125.449 170.292 124.903 170.898 124.517 171.648C124.138 172.39 123.949 173.197 123.949 174.068V176.057C123.949 177.223 124.153 178.216 124.562 179.034C124.979 179.852 125.559 180.477 126.301 180.909C127.044 181.333 127.911 181.545 128.903 181.545C129.547 181.545 130.134 181.455 130.665 181.273C131.195 181.083 131.653 180.803 132.04 180.432C132.426 180.061 132.722 179.602 132.926 179.057L136.142 179.636C135.884 180.583 135.422 181.413 134.756 182.125C134.097 182.83 133.267 183.379 132.267 183.773C131.275 184.159 130.142 184.352 128.869 184.352ZM154.56 166.545L148.23 184H144.594L138.253 166.545H141.901L146.321 179.977H146.503L150.912 166.545H154.56ZM164.682 184.352C162.962 184.352 161.481 183.985 160.239 183.25C159.004 182.508 158.049 181.466 157.375 180.125C156.708 178.777 156.375 177.197 156.375 175.386C156.375 173.598 156.708 172.023 157.375 170.659C158.049 169.295 158.989 168.231 160.193 167.466C161.405 166.701 162.822 166.318 164.443 166.318C165.428 166.318 166.383 166.481 167.307 166.807C168.231 167.133 169.061 167.644 169.795 168.341C170.53 169.038 171.11 169.943 171.534 171.057C171.958 172.163 172.17 173.508 172.17 175.091V176.295H158.295V173.75H168.841C168.841 172.856 168.659 172.064 168.295 171.375C167.932 170.678 167.42 170.129 166.761 169.727C166.11 169.326 165.345 169.125 164.466 169.125C163.511 169.125 162.678 169.36 161.966 169.83C161.261 170.292 160.716 170.898 160.33 171.648C159.951 172.39 159.761 173.197 159.761 174.068V176.057C159.761 177.223 159.966 178.216 160.375 179.034C160.792 179.852 161.371 180.477 162.114 180.909C162.856 181.333 163.723 181.545 164.716 181.545C165.36 181.545 165.947 181.455 166.477 181.273C167.008 181.083 167.466 180.803 167.852 180.432C168.239 180.061 168.534 179.602 168.739 179.057L171.955 179.636C171.697 180.583 171.235 181.413 170.568 182.125C169.909 182.83 169.08 183.379 168.08 183.773C167.087 184.159 165.955 184.352 164.682 184.352ZM179.338 160.727V184H175.94V160.727H179.338ZM201.162 160.727V184H197.639V164.25H197.503L191.935 167.886V164.523L197.741 160.727H201.162Z" fill="#B8B8B8"/>
</svg>
